<svg xmlns="http://www.w3.org/2000/svg" id="Layer_1" x="0" y="0" version="1.1" viewBox="0 0 52 52" xml:space="preserve"><path d="m33.916 18.66-1.099 22.083a1 1 0 0 1-.998.95h-.05a1 1 0 0 1-.95-1.05l1.094-21.983h-4.916v22.033a1 1 0 1 1-2 0V18.66H20.08l1.094 21.983a1 1 0 0 1-.95 1.05h-.05a1 1 0 0 1-.998-.95L18.078 18.66H9.855c-.087 0-.173-.01-.26-.013l2.56 27.403a4.333 4.333 0 0 0 4.33 3.95h19.02c2.26 0 4.12-1.7 4.33-3.95l2.56-27.403c-.084.004-.166.013-.25.013h-8.23z"/><path fill="#fc0000" d="M42.145 8.85h-7.52V6.63c0-2.56-2.07-4.63-4.63-4.63h-8c-2.55 0-4.63 2.07-4.63 4.63v2.22h-7.51c-1.93 0-3.49 1.56-3.49 3.49v.83c0 1.92 1.56 3.49 3.49 3.49h32.29a3.5 3.5 0 0 0 3.49-3.49v-.83c0-1.93-1.57-3.49-3.49-3.49zm-9.52 0h-13.26V6.63c0-1.45 1.18-2.63 2.63-2.63h8c1.45 0 2.63 1.18 2.63 2.63v2.22z"/></svg>